<?xml version="1.0" encoding="UTF-8" standalone="no"?>
<svg width="470px" height="58px" viewBox="0 0 470 58" version="1.1" xmlns="http://www.w3.org/2000/svg" xmlns:xlink="http://www.w3.org/1999/xlink">
    <!-- Generator: Sketch 46.1 (44463) - http://www.bohemiancoding.com/sketch -->
    <title>Artboard</title>
    <desc>Created with Sketch.</desc>
    <defs></defs>
    <g id="Page-1" stroke="none" stroke-width="1" fill="none" fill-rule="evenodd">
        <g id="Artboard" fill-rule="nonzero" fill="#1A1918">
            <g id="the-york-press">
                <path d="M108.263312,54.6913984 C113.839803,54.6913984 115.212845,52.9326364 115.212845,47.7352884 L115.212845,14.6477186 C115.212845,8.83561124 114.297882,6.77604772 108.492353,6.69770776 L108.492353,4.78884401 L152.052958,4.78884401 L152.052958,20.2242082 L150.294795,20.2242082 C149.144214,10.7510532 144.024608,7.61326866 133.02173,7.61326866 C128.281863,7.61326866 127.445241,7.99898831 127.445241,12.4314752 L127.445241,28.6317005 L128.667583,28.6317005 C135.467014,28.6317005 138.219078,25.5004941 139.442019,17.3214435 L141.272543,17.3214435 L141.272543,43.1521017 L139.363679,43.1521017 C138.598818,34.2871279 135.774393,31.3060234 127.746042,31.3060234 L127.445241,31.3060234 L127.445241,48.957631 C127.445241,52.7759565 128.589243,53.4690558 132.871629,53.4690558 C143.567126,53.4690558 149.450996,50.2589116 153.426001,40.3216969 L155.563904,40.3216969 L152.432698,56.6002622 L108.263312,56.6002622 L108.263312,54.6913984 Z M48.8876035,54.6130584 C54.2350532,54.4623587 55.6080956,52.6252568 55.6080956,47.4279087 L55.6080956,13.4971379 C55.6080956,8.60657152 54.0066115,7.00508745 48.9593652,6.69770776 L48.9593652,4.78884401 L74.6393237,4.78884401 L74.6393237,6.69770776 C68.7554545,7.00508745 67.8404916,8.45646976 67.8404916,13.4971379 L67.8404916,28.0958791 L86.0285189,28.0958791 L86.0285189,13.4971379 C86.0285189,8.29919182 85.1063795,7.07684925 79.2225104,6.69770776 L79.2225104,4.78884401 L104.824727,4.78884401 L104.824727,6.69770776 C99.4766787,7.07684925 98.2537384,8.53480972 98.2537384,13.4971379 L98.2537384,47.4279087 C98.2537384,52.475155 99.6267811,54.3840187 104.824727,54.6130584 L104.824727,56.6002622 L79.2225104,56.6002622 L79.2225104,54.6130584 C85.0346178,54.3056788 86.0285189,52.7759565 86.0285189,47.4279087 L86.0285189,31.4561252 L67.8404916,31.4561252 L67.8404916,47.4279087 C67.8404916,52.5469168 68.8337945,54.3840187 74.6393237,54.6130584 L74.6393237,56.6002622 L48.8876035,56.6002622 L48.8876035,54.6130584 Z M36.2760659,54.6130584 L36.2760659,56.6002622 L9.45150683,56.6002622 L9.45150683,54.6130584 C15.1852743,54.6130584 16.7149966,52.7759565 16.7149966,47.4279087 L16.7149966,7.31246714 L15.9501354,7.31246714 C7.92836275,7.31246714 3.03779639,12.0457556 2.27293526,20.4532479 L0.207391588,20.4532479 L0.207391588,4.78884401 L45.6774591,4.78884401 L45.6774591,20.5315879 L43.7679974,20.5315879 C43.0031362,11.8167158 38.1131679,7.31246714 29.5549758,7.31246714 L28.9408144,7.31246714 L28.9408144,47.4279087 C28.9408144,52.7041947 30.0130553,54.5347186 36.2760659,54.6130584 L36.2760659,54.6130584 Z" id="Fill-1"></path>
                <path d="M171.350542,36.4048186 L168.885525,36.4765804 L168.885525,32.5996493 C168.885525,32.5996493 169.591781,30.3182222 170.226274,30.3182222 C170.86017,30.3182222 171.285359,32.5213094 171.285359,32.5213094 L171.350542,36.4048186 Z M433.769674,38.6407965 L435.985917,38.6407965 C438.4312,49.6436737 443.321168,54.9199597 451.271179,54.9199597 C457.004947,54.9199597 460.594233,51.330674 460.594233,46.4335295 C460.594233,42.8442437 458.60643,40.3995585 454.481324,38.4117567 L447.375112,34.8948308 C438.50954,30.6190238 434.534534,25.8791573 434.534534,18.8506874 C434.534534,9.5282322 441.033163,3.565425 449.898137,3.565425 C456.697567,3.565425 460.672573,6.01070817 462.960578,6.01070817 C464.183518,6.01070817 465.10506,5.16750708 465.3341,3.565425 L467.472002,3.565425 L467.472002,20.3020697 L465.563139,20.3020697 C463.418657,11.5154359 457.155049,6.01070817 450.9638,6.01070817 C445.844791,6.01070817 442.484546,9.14251254 442.484546,13.3459597 C442.484546,17.3209651 445.23063,19.6879083 450.356216,22.1325935 L457.691468,25.5717776 C465.713241,29.3960832 469.766586,33.6001284 469.766586,41.4717994 C469.766586,51.173396 462.431335,57.7437864 450.735358,57.7437864 C444.31507,57.7437864 440.804123,55.2267414 438.50954,55.2267414 C436.829118,55.2267414 436.293297,55.9916026 435.835815,57.8227244 L433.769674,57.8227244 L433.769674,38.6407965 Z M390.901569,38.6407965 L393.117812,38.6407965 C395.563096,49.6436737 400.453064,54.9199597 408.403075,54.9199597 C414.130264,54.9199597 417.726128,51.330674 417.726128,46.4335295 C417.726128,42.8442437 415.738327,40.3995585 411.606641,38.4117567 L404.50641,34.8948308 C395.641436,30.6190238 391.66643,25.8791573 391.66643,18.8506874 C391.66643,9.5282322 398.158481,3.565425 407.024053,3.565425 C413.829463,3.565425 417.797889,6.01070817 420.093071,6.01070817 C421.315414,6.01070817 422.230377,5.16750708 422.459416,3.565425 L424.603899,3.565425 L424.603899,20.3020697 L422.688456,20.3020697 C420.550552,11.5154359 414.286944,6.01070817 408.095695,6.01070817 C402.976687,6.01070817 399.609863,9.14251254 399.609863,13.3459597 C399.609863,17.3209651 402.362526,19.6879083 407.481534,22.1325935 L414.816785,25.5717776 C422.845136,29.3960832 426.891904,33.6001284 426.891904,41.4717994 C426.891904,51.173396 419.556652,57.7437864 407.867254,57.7437864 C401.446965,57.7437864 397.929441,55.2267414 395.641436,55.2267414 C393.955033,55.2267414 393.418614,55.9916026 392.967711,57.8227244 L390.901569,57.8227244 L390.901569,38.6407965 Z M337.331389,54.69092 C342.907878,54.69092 344.287499,52.9321581 344.287499,47.73481 L344.287499,14.6472403 C344.287499,8.83513285 343.36536,6.77556931 337.55983,6.69722935 L337.55983,4.78836559 L381.121034,4.78836559 L381.121034,20.2237297 L379.362272,20.2237297 C378.21827,10.7505748 373.099262,7.61219224 362.089806,7.61219224 C357.356518,7.61219224 356.512718,7.9985099 356.512718,12.4309968 L356.512718,28.6312221 L357.735659,28.6312221 C364.535089,28.6312221 367.287154,25.5000157 368.509497,17.3209651 L370.347197,17.3209651 L370.347197,43.1516233 L368.437735,43.1516233 C367.672874,34.2866496 364.841871,31.305545 356.820098,31.305545 L356.512718,31.305545 L356.512718,48.9571526 C356.512718,52.7820563 357.657319,53.4685775 361.939106,53.4685775 C372.64178,53.4685775 378.52565,50.2584332 382.494076,40.3206205 L384.638558,40.3206205 L381.506754,56.5997838 L337.331389,56.5997838 L337.331389,54.69092 Z M327.858233,18.5433077 C327.858233,24.7345566 323.883228,29.0893015 316.240598,31.1548453 L329.538058,50.8666143 C331.14014,53.3112995 332.290721,54.6125801 334.814344,54.6125801 L335.042786,54.6125801 L335.042786,56.5997838 L318.914322,56.5997838 L303.328258,32.4495476 L301.112014,32.4495476 L301.112014,47.4274303 C301.112014,52.5530165 302.105916,54.3835404 307.911445,54.6125801 L307.911445,56.5997838 L282.159127,56.5997838 L282.159127,54.6125801 C287.507175,54.4618803 288.886197,52.6247784 288.886197,47.4274303 L288.886197,13.4966594 C288.886197,8.45599135 287.278135,7.00460904 282.237467,6.69722935 L282.237467,4.78836559 L305.080442,4.78836559 C320.293943,4.78836559 327.858233,9.22085251 327.858233,18.5433077 L327.858233,18.5433077 Z M303.557298,30.0042644 C311.428371,30.0042644 314.939316,26.4149786 314.939316,18.393206 C314.939316,11.2080562 311.88645,7.54043044 305.923643,7.54043044 C301.647836,7.54043044 301.112014,8.53433131 301.112014,12.7317983 L301.112014,30.0042644 L303.557298,30.0042644 Z M271.992873,6.61888938 C277.26856,8.91347283 280.171325,13.3459597 280.171325,18.8506874 C280.171325,27.4806413 273.600934,33.2144088 261.146675,33.2144088 L254.340667,33.2144088 L254.340667,47.4274303 C254.340667,52.5530165 255.334568,54.3835404 261.146675,54.6125801 L261.146675,56.5997838 L235.394357,56.5997838 L235.394357,54.6125801 C240.742405,54.4618803 242.115447,52.6247784 242.115447,47.4274303 L242.115447,13.4966594 C242.115447,8.60609314 240.513365,7.00460904 235.466118,6.69722935 L235.466118,4.78836559 L257.936531,4.78836559 C263.43468,4.78836559 268.024445,4.86670555 271.992873,6.61888938 L271.992873,6.61888938 Z M256.55691,30.4617459 C263.9711,30.4617459 266.873864,27.4088795 266.873864,19.1514889 C266.873864,11.1297162 264.506921,7.54043044 258.237332,7.54043044 C255.184466,7.54043044 254.340667,8.53433131 254.340667,11.280416 L254.340667,30.4617459 L256.55691,30.4617459 Z" id="Fill-3"></path>
                <path d="M201.673848,31.3788616 L203.295067,31.1564 L203.295067,23.6249997 C203.295067,23.6249997 202.870476,22.1801955 202.588811,21.9517538 C202.307744,21.722714 202.517049,21.0361929 202.235982,21.0361929 C201.954915,21.0361929 202.099036,21.1862946 202.026677,21.6443741 C201.954915,22.1018555 201.602086,22.8601385 201.602086,23.8540394 C201.602086,24.841362 201.673848,31.3788616 201.673848,31.3788616 L201.673848,31.3788616 Z M198.287289,31.7580031 L199.908507,31.5355416 L199.908507,24.0041411 C199.908507,24.0041411 199.490496,22.5593369 199.202252,22.3302972 C198.921185,22.1018555 199.137068,21.4153343 198.856001,21.4153343 C198.568356,21.4153343 198.712478,21.5720143 198.640118,22.0235156 C198.568356,22.4809971 198.222105,23.2458581 198.222105,24.2331809 C198.222105,25.2205036 198.287289,31.7580031 198.287289,31.7580031 L198.287289,31.7580031 Z M184.113138,53.1364399 L186.865801,53.1364399 L186.865801,49.4819705 C186.865801,49.4819705 186.159545,47.4289851 185.597411,47.4289851 C185.035277,47.4289851 184.25726,48.7236876 184.185498,49.5603105 C184.113138,50.3975314 184.113138,53.1364399 184.113138,53.1364399 L184.113138,53.1364399 Z M171.279737,46.9063201 L168.815317,46.9780819 L168.815317,43.5263395 C168.815317,43.5263395 169.416323,41.3818579 170.050816,41.3818579 C170.684713,41.3818579 171.214554,43.4605579 171.214554,43.4605579 L171.279737,46.9063201 Z" id="Fill-5"></path>
                <path d="M228.124708,55.2217181 C226.679903,55.0781946 221.893989,54.9735419 221.893989,54.9735419 L221.893989,42.2836644 L222.58051,41.4332871 C222.58051,41.4332871 221.155441,32.8296459 220.756565,32.7776186 C220.364267,32.7255913 220.266192,33.8953086 220.266192,33.8953086 L209.43973,33.9479339 L208.668291,21.7681632 C208.668291,21.7681632 208.6354,21.0619075 208.570216,20.8460242 C208.505032,20.6367189 208.21081,20.9572549 207.98177,20.9901458 C207.752729,21.0224385 207.850804,20.6044261 207.680968,20.4603045 C207.51771,20.3167809 207.680968,20.1403665 207.51771,20.0357139 C207.354452,19.9310613 207.060228,20.2450191 207.060228,20.2450191 C207.060228,20.2450191 207.027338,19.5710562 206.929263,19.5710562 C206.831188,19.5710562 206.040015,19.2576964 206.040015,19.2576964 C206.040015,19.2576964 205.843866,18.9042695 205.647717,18.8653985 C205.451568,18.8325078 205.451568,19.32288 205.451568,19.32288 L205.026977,19.362349 C205.026977,19.362349 204.961196,18.8653985 204.830829,18.8653985 C204.699863,18.8653985 204.63468,19.4341108 204.63468,19.4341108 L204.170022,19.4670016 C204.170022,19.4670016 204.071948,19.0089221 203.810615,18.9700511 C203.549283,18.9371604 203.614466,19.5387634 203.614466,19.5387634 L203.222169,19.6105252 C203.222169,19.6105252 203.091801,18.8653985 202.82987,18.8653985 C202.561959,18.8653985 202.561959,19.7546468 202.561959,19.7546468 L202.137369,19.7869397 C202.137369,19.7869397 202.104478,18.9700511 201.875438,18.9700511 C201.646997,18.9700511 201.646997,19.8198304 201.646997,19.8198304 L201.286992,19.8587014 C201.286992,19.8587014 201.352773,19.0089221 200.960476,19.0089221 C200.5616,19.0089221 200.593892,19.8915923 200.593892,19.8915923 L200.29967,19.9310613 C200.29967,19.9310613 200.33256,19.080684 200.006044,19.080684 C199.67893,19.080684 199.71182,20.1074756 199.71182,20.1074756 L199.319523,20.1403665 C199.319523,20.1403665 199.384706,19.2899892 199.018721,19.2899892 C198.658716,19.2899892 198.789681,20.2121282 198.789681,20.2121282 L198.502036,20.2773119 C198.502036,20.2773119 198.430274,19.362349 198.076848,19.362349 C197.724019,19.362349 198.005086,20.0488701 197.724019,20.3556518 C197.442952,20.6564534 197.090123,20.1272101 197.090123,19.6697287 C197.090123,19.2116492 196.664934,19.5907907 196.664934,19.5907907 C196.664934,19.5907907 196.809056,31.8363431 196.59975,31.8363431 C196.383867,31.8363431 195.821733,32.8296459 195.821733,32.8296459 L194.690289,10.4644844 L194.33746,10.0064049 L194.272276,6.28017371 C194.272276,6.28017371 194.128155,2.47500452 193.775326,2.47500452 C193.422497,2.47500452 193.350137,5.97279403 193.350137,5.97279403 L192.578698,5.29285101 C192.578698,5.29285101 192.651058,1.33758006 192.297631,1.33758006 C191.944803,1.33758006 191.728919,4.91370953 191.728919,4.91370953 L190.813358,4.22718836 C190.813358,4.22718836 190.957479,0.350257363 190.388767,0.350257363 C189.826633,0.350257363 189.689089,4.37729011 189.689089,4.37729011 L187.923749,4.83536957 C187.923749,4.83536957 187.570921,0.958438577 187.218092,0.958438577 C186.864665,0.958438577 186.72772,5.21451106 186.72772,5.21451106 L185.171685,5.82269227 C185.171685,5.82269227 185.105903,1.79506151 184.681312,1.79506151 C184.256124,1.79506151 184.046819,8.03235755 184.046819,8.03235755 C184.046819,8.03235755 184.465429,8.56160079 184.537191,8.94074231 C184.609551,9.31988374 184.046819,10.0064049 184.046819,10.0064049 L184.119178,14.8772368 L183.622228,15.5571798 L183.831533,21.5720143 L183.341161,22.6310988 L183.341161,25.4489452 L182.282077,25.4489452 L178.96728,22.7877787 L178.96728,11.5301471 L178.686213,11.0720676 C178.686213,11.0720676 178.96728,8.71230053 178.476908,8.71230053 C177.979957,8.71230053 177.843011,10.8436259 177.843011,10.8436259 L177.064994,10.6145862 C177.064994,10.6145862 176.992635,7.19513661 176.639805,7.19513661 C176.293555,7.19513661 176.077671,10.3137846 176.077671,10.3137846 L174.881044,9.85630314 C174.881044,9.85630314 175.018587,5.90103223 174.247147,5.90103223 C173.46913,5.90103223 173.46913,9.54892346 173.46913,9.54892346 L172.344263,9.93464311 C172.344263,9.93464311 171.984857,6.6593152 171.566247,6.6593152 C171.141656,6.6593152 171.004113,10.7646879 171.004113,10.7646879 L170.226095,11.0720676 C170.226095,11.0720676 170.082571,7.26749641 169.592199,7.26749641 C169.095249,7.26749641 169.095249,11.608487 169.095249,11.608487 L168.252048,12.2160702 L168.461352,17.845185 L167.89862,18.3750263 L167.826859,25.3706053 L167.055419,25.8280868 L166.983658,33.2093854 L166.277402,33.2811472 L166.277402,40.1326046 L165.362439,40.7407858 L165.080774,52.9857402 C165.080774,52.9857402 163.682017,54.0842937 162.962606,54.0842937 C162.237213,54.0842937 162.106248,54.5812441 161.191285,54.6530059 C160.269145,54.7247677 158.563009,55.7838522 159.085674,56.2090408 C159.615516,56.6336314 161.452617,56.2090408 162.367581,56.2090408 C163.28972,56.2090408 165.584302,56.5618696 166.898739,56.6336314 C168.212578,56.7059912 173.723885,56.6336314 175.038321,56.6336314 C176.345582,56.6336314 182.19058,57.0588201 184.223831,57.1305818 C186.257082,57.2029417 192.558964,57.3464653 193.670673,57.3464653 C194.788363,57.3464653 198.267016,57.2029417 201.810255,57.3464653 C205.353494,57.4840087 210.211169,57.1305818 212.179236,57.1305818 C214.146706,57.1305818 221.233781,56.777753 223.267032,56.777753 C225.300283,56.777753 231.210465,56.4249242 231.275648,55.9997356 C231.341429,55.5745469 229.569511,55.3592615 228.124708,55.2217181 L228.124708,55.2217181 Z M165.871948,41.2897635 L166.643387,41.2114236 L166.643387,43.0939747 L165.871948,43.0939747 L165.871948,41.2897635 Z M165.839655,45.6044415 L166.702591,45.6044415 L166.702591,43.6172378 L165.839655,43.6172378 L165.839655,45.6044415 Z M165.735002,48.9521293 L166.767774,48.9521293 L166.767774,46.5265806 L165.735002,46.5265806 L165.735002,48.9521293 Z M165.669221,53.1364399 L166.839536,53.1364399 L166.839536,50.0177919 L165.669221,50.0177919 L165.669221,53.1364399 Z M191.278015,6.46974445 L191.278015,8.41149904 L190.009626,8.41149904 L190.009626,6.86862044 L191.278015,6.46974445 Z M191.225391,9.39882174 L191.225391,14.1123756 C191.225391,14.1123756 190.532291,14.8772368 190.1077,14.4980953 C189.689089,14.1123756 189.492941,13.6674525 189.780586,13.6674525 C190.061653,13.6674525 190.251224,14.0406139 190.251224,12.8242514 L190.251224,9.62726343 L191.225391,9.39882174 Z M184.890618,6.71792067 L190.388767,5.0446748 L190.388767,6.20183376 L184.890618,7.95401759 L184.890618,6.71792067 Z M189.336261,6.97985122 L189.264499,8.41149904 L185.034142,9.85630314 L184.99527,8.42465536 L189.336261,6.97985122 Z M177.993114,24.0041411 C178.483485,23.8534414 178.300493,23.1148929 178.300493,23.1148929 L180.935347,24.9256822 C180.935347,24.9256822 179.294394,24.6117243 179.222034,25.0698038 C179.150272,25.5272852 179.594597,25.7102778 179.876262,25.7820396 C180.157329,25.8603795 180.634546,26.3639081 180.418662,26.43567 C180.209356,26.514608 178.470329,26.5929479 178.470329,26.5929479 C178.470329,26.5929479 178.686213,25.4423671 178.051718,25.4423671 C177.417823,25.4423671 177.136756,26.880593 177.136756,26.880593 L175.665639,27.116211 L175.665639,26.1420446 C175.665639,26.1420446 177.071572,25.677387 176.862266,24.997444 C176.652962,24.3109228 175.93355,24.5333843 175.93355,24.5333843 C175.93355,24.5333843 176.286977,23.7033396 177.136756,24.0041411 C177.979957,24.3109228 177.496163,24.1542429 177.993114,24.0041411 L177.993114,24.0041411 Z M175.8881,16.3417755 C176.456812,16.0409739 176.385051,16.1127357 176.385051,16.1127357 C176.385051,16.1127357 176.809642,16.4201154 177.300014,16.9499566 C177.796964,17.4857781 177.862148,18.7212769 177.509319,18.7212769 C177.15649,18.7212769 177.300014,18.3421355 177.090709,17.9564158 C176.875423,17.5772743 176.24093,17.0869021 176.24093,17.0869021 C176.24093,17.0869021 175.8881,17.5055126 175.534673,18.1854556 C175.181845,18.8719768 175.116661,18.642937 175.116661,18.642937 C174.619711,18.1854556 175.325966,16.6491552 175.8881,16.3417755 L175.8881,16.3417755 Z M169.042623,12.5694971 C169.042623,12.5694971 173.103145,10.5033553 173.710728,10.4513281 C174.318909,10.4052809 174.671738,10.7060824 174.671738,10.7060824 L174.671738,13.5239289 L173.802225,13.8767578 L173.802225,11.2682165 L169.042623,13.4778818 L169.042623,12.5694971 Z M168.787869,15.0339167 C168.787869,14.0274575 169.840375,13.726656 169.840375,13.726656 L171.939408,12.9223259 C171.939408,12.9223259 172.265924,14.0274575 172.729983,14.4329117 C173.201219,14.8311897 173.103145,14.9818894 173.103145,14.9818894 L173.103145,16.1910756 L172.167849,16.1910756 L172.167849,17.1000584 C172.167849,17.1000584 172.403467,17.4528872 172.729983,18.3092446 C173.057098,19.1662001 172.965601,19.9179049 173.246668,20.120632 C173.527735,20.3233591 173.802225,19.3163018 173.802225,19.3163018 L173.802225,14.6810879 L174.599977,15.2892691 L174.599977,24.20029 L175.110083,24.20029 L175.064036,23.8994885 C175.018587,23.5986869 175.201579,23.1471857 175.763713,23.0431311 C176.325847,22.9450566 177.064994,22.2710937 177.064994,22.8726968 C177.064994,23.4742998 175.803183,23.8994885 175.803183,23.8994885 C175.803183,23.8994885 175.705107,24.8144514 175.423443,25.1678782 C175.142376,25.5207071 175.148954,26.1611811 175.148954,26.1611811 C175.148954,26.1611811 175.038321,27.2597346 174.292597,27.357809 C173.54747,27.4558835 173.266403,26.9655112 173.266403,26.9655112 L173.266403,26.1223101 L174.227413,26.1223101 L174.227413,25.8603795 C174.227413,25.8603795 173.253247,25.7754614 173.063676,25.5727343 C172.880683,25.3706053 172.782609,24.7163769 172.782609,24.7163769 L172.776031,20.2187064 C172.638487,19.6171034 172.024326,17.2962073 170.906038,17.2962073 C170.01679,17.2962073 169.513859,20.0680066 169.513859,20.0680066 L169.513859,25.5601761 L172.494963,25.0566475 L172.494963,27.8218687 L168.787869,28.3253972 L168.787869,15.0339167 Z M167.460873,54.6201151 L167.179806,54.0059537 L167.813703,52.9725838 L167.85975,32.2543555 L168.67006,29.8288068 L172.481807,29.273251 L172.448916,32.4570826 C172.448916,32.4570826 171.795286,32.7058568 171.795286,33.5622142 L171.795286,38.9036839 L171.795286,50.1290227 C171.795286,50.1290227 170.716467,48.2195609 170.258985,48.2195609 C169.592199,48.2195609 168.807603,49.6775214 168.807603,50.579926 L168.807603,53.2536509 L170.97182,53.2536509 C170.97182,53.2536509 171.298336,53.6327924 171.487907,53.6327924 C171.670899,53.6327924 172.141536,53.5155814 172.749718,53.1621546 C173.357899,52.8093257 174.646024,52.7961695 175.018587,52.9008221 C175.39115,52.9988965 175.718264,53.1035491 175.718264,53.1035491 L179.183163,53.1035491 L179.183163,48.5729877 C179.183163,48.5729877 178.117501,45.4543398 177.273701,45.4543398 C176.502262,45.4543398 175.332545,47.8930448 175.286498,48.7494022 C175.240451,49.6057596 175.286498,51.7699757 175.286498,51.7699757 C175.286498,51.7699757 173.946346,52.2471917 173.665279,51.8937648 C173.384212,51.540936 173.201219,51.0374074 173.802225,51.0374074 C174.410406,51.0374074 174.829016,50.8873057 174.782968,50.18105 C174.73752,49.4747944 174.782968,48.821164 174.782968,48.821164 L174.370937,48.821164 L174.370937,45.3891561 C174.370937,45.3891561 175.62617,45.186429 175.999331,45.186429 C176.371895,45.186429 176.835955,45.14696 176.652962,44.741506 C176.463391,44.343228 176.371895,44.6434315 175.528693,44.741506 C174.691473,44.8461586 173.946346,44.7941312 173.946346,44.7941312 L173.946346,48.821164 L173.384212,48.821164 L173.475708,44.8461586 C173.475708,44.8461586 173.802225,43.7350467 174.364957,43.7870741 C174.927091,43.8331212 174.874465,44.6894786 175.528693,44.343228 C176.182324,43.9898011 176.789907,43.3816199 177.254565,43.4862725 C177.725203,43.584347 178.189262,44.2385754 178.6599,44.18595 C178.6599,44.18595 179.359577,43.8851485 179.686094,43.8851485 L180.477267,43.8851485 L180.477267,53.5544524 C180.477267,53.5544524 180.84983,53.9599066 181.176945,53.9599066 C181.504059,53.9599066 182.066193,54.6201151 182.066193,54.6201151 L167.460873,54.6201151 Z M182.282077,49.9394519 L182.072771,50.6253751 C181.856888,51.3124943 182.072771,53.1364399 182.072771,53.1364399 L181.294754,53.1364399 L181.294754,44.3169153 C181.294754,43.8594338 180.588498,43.0222129 180.588498,43.0222129 C180.588498,43.0222129 180.66026,38.230319 180.588498,34.8042913 C180.516736,31.3716855 177.843011,29.0250748 177.843011,29.0250748 C174.946227,31.6856433 175.018587,34.4251499 175.018587,34.4251499 L175.018587,42.5647315 C175.018587,43.6303941 174.809281,42.9438729 174.312331,42.865533 C173.821959,42.7931732 173.325008,43.4013544 173.325008,43.4013544 L173.325008,29.1099929 L181.719942,27.8876503 L181.928649,26.8219877 L182.634905,26.6712878 L183.060094,32.2220627 L182.634905,32.6012042 L182.634905,37.5437978 L182.282077,38.3804208 L182.282077,49.9394519 Z M188.518775,45.1995854 L186.792903,45.2779254 L186.792903,42.6430715 C186.792903,42.6430715 186.302531,40.9692276 185.524513,40.9692276 C184.753074,40.9692276 184.184362,43.1729127 184.184362,43.1729127 L184.184362,46.820804 L188.466747,46.820804 L188.466747,54.6201151 L182.4256,54.6201151 C182.4256,54.6201151 182.458491,54.0514028 182.81132,53.9013011 C183.164746,53.7440231 183.380032,53.5155814 183.380032,52.3775589 L183.380032,39.2959817 C183.380032,39.2959817 183.863826,38.4396242 183.720303,38.0598848 C183.582759,37.6741651 182.785007,36.4584007 183.210196,36.4584007 C183.628806,36.4584007 184.641844,37.5437978 184.922911,36.8572767 C185.203978,36.1707555 184.903774,36.3208573 184.406824,35.9417158 C183.916451,35.5625743 183.69399,35.5625743 183.69399,35.5625743 C183.69399,35.5625743 184.15805,34.5686735 184.583238,34.5686735 C185.001849,34.5686735 188.518775,33.9999612 188.518775,33.9999612 L188.518775,45.1995854 Z M188.83931,32.3721645 L187.996109,32.8296459 L187.996109,30.0123974 C187.996109,30.0123974 187.361616,27.7303723 186.230769,27.7303723 C185.315209,27.7303723 184.400245,30.5482188 184.400245,30.5482188 L184.400245,33.1304474 L183.720303,32.5748916 L183.720303,27.5276453 L187.996109,26.9523549 C187.996109,26.9523549 187.433377,26.5929479 187.786804,26.1354665 C188.133055,25.677387 188.296911,25.3765855 187.662417,25.3765855 C187.028521,25.3765855 184.125757,25.8346649 184.125757,25.8346649 C184.125757,25.8346649 183.622228,25.0698038 184.400245,25.0698038 C185.171685,25.0698038 185.165106,24.5919898 185.093345,24.2917863 C185.020985,23.9844066 184.955802,23.0168184 184.955802,23.0168184 L188.774127,22.199332 L188.774127,25.4489452 C188.774127,25.4489452 188.45359,25.6253597 188.518775,26.2335409 C188.591134,26.8411241 188.865623,26.6910223 188.865623,26.6910223 L188.83931,32.3721645 Z M189.290214,17.1586639 C189.218452,16.7011824 188.061293,13.0532911 186.937025,13.0532911 C185.805581,13.0532911 185.38099,16.5445025 185.38099,16.5445025 L185.38099,22.2908282 L184.694469,22.4086372 L184.694469,10.6929262 L189.538988,9.16978202 L189.604172,13.125053 L189.290214,13.4324327 C189.290214,13.4324327 189.361975,17.6167433 189.290214,17.1586639 L189.290214,17.1586639 Z M190.885718,34.5034898 C191.238546,34.5034898 192.22587,33.9676684 192.22587,33.9676684 L192.22587,55.0387256 L189.898395,55.0387256 L189.898395,50.5536134 L190.388767,50.5536134 C190.885718,50.5536134 190.604651,50.0961319 190.604651,49.8670922 C190.604651,49.6386505 189.826633,49.5603105 189.826633,49.5603105 C189.826633,49.5603105 189.754273,37.1646564 189.826633,36.5564751 C189.898395,35.9482939 190.251224,35.8699539 190.741596,35.8699539 C191.238546,35.8699539 191.87304,35.7916141 191.87304,35.4124725 C191.87304,35.033331 191.095023,35.033331 190.532291,35.111671 C189.970156,35.1834328 189.545566,35.4124725 189.545566,35.4124725 L189.584437,33.509589 L189.584437,22.3302972 C189.584437,22.3302972 189.545566,22.1801955 189.754273,21.722116 C189.970156,21.2646346 189.826633,20.6564534 189.826633,20.6564534 L189.826633,15.5571798 L191.238546,15.3347182 L191.238546,20.8854931 L191.663735,21.4936743 L191.663735,30.3191791 C191.663735,30.3191791 192.297631,31.3065018 192.297631,31.6073033 C192.297631,31.914683 191.80068,31.7645813 191.80068,32.0647848 C191.80068,32.3721645 191.728919,32.7513059 191.310308,33.0521075 C190.885718,33.3594871 190.741596,33.1304474 190.532291,33.7386287 C190.323584,34.3468099 190.532291,34.5034898 190.885718,34.5034898 L190.885718,34.5034898 Z M195.148368,28.2859282 L193.91885,28.2667917 L193.91885,25.0698038 L194.867301,24.9388385 L195.148368,28.2859282 Z M194.651418,17.8978104 L194.860723,24.2917863 L193.91885,24.1542429 L193.703564,17.5384033 L194.651418,17.8978104 Z M193.775326,29.4042162 L195.148368,29.4891343 L195.436014,39.2959817 L193.775326,39.5178452 L193.775326,29.4042162 Z M193.847088,54.8096858 L193.847088,40.3550662 L196.063331,40.6618478 L196.122535,54.8096858 L193.847088,54.8096858 Z M206.628461,41.7669795 C207.268935,41.9960192 207.831667,42.0612029 207.831667,41.3681035 C207.831667,40.6815823 208.32204,40.0476865 208.32204,40.0476865 C208.32204,40.0476865 209.178397,43.545476 208.857861,43.545476 C208.537325,43.545476 205.261997,42.2244609 205.261997,42.2244609 C205.261997,42.2244609 205.994566,41.5379397 206.628461,41.7669795 L206.628461,41.7669795 Z M198.691607,55.1888273 L196.95258,55.1888273 L196.95258,40.9692276 L198.691607,41.4990688 L198.691607,55.1888273 Z M198.011664,40.0476865 C197.475842,39.9364557 196.664934,38.6878005 197.090123,38.0012793 C197.514714,37.3147581 197.521292,35.7981922 197.665413,35.5428398 C197.828672,35.2426363 198.462567,35.432207 198.462567,35.432207 L198.756791,38.3283935 L198.861443,40.3419099 C198.861443,40.3419099 198.541505,40.1654954 198.011664,40.0476865 L198.011664,40.0476865 Z M201.378489,55.2677653 L199.489359,55.2677653 L199.489359,41.7281086 L201.378489,42.4863915 L201.378489,55.2677653 Z M201.548923,39.3743216 C201.012503,39.4855525 200.698545,39.4855525 200.698545,40.1720736 C200.698545,40.8579968 199.770426,41.1522202 199.44989,40.6947387 C199.129952,40.2372573 199.659195,38.4001552 199.659195,38.4001552 L200.456947,37.6550286 L200.731436,36.9685074 C200.731436,36.9685074 202.078165,39.2565127 201.548923,39.3743216 L201.548923,39.3743216 Z M203.660514,55.2677653 L202.026138,55.2677653 L202.026138,42.7148332 L203.660514,43.2512526 L203.660514,55.2677653 Z M203.222169,36.3405918 L203.222169,37.3344926 L202.058431,36.471557 L202.058431,32.2872464 C202.058431,32.2872464 200.33256,32.3721645 200.195614,32.672966 C200.051493,32.9803457 200.967054,33.4378271 200.967054,33.4378271 C200.967054,33.4378271 200.829511,34.1961101 200.685987,34.6541896 C200.541865,35.111671 200.757749,36.0989937 200.757749,36.0989937 L200.051493,36.0989937 C200.051493,36.0989937 199.417597,32.5228642 198.854865,32.5228642 C198.286153,32.5228642 197.86814,34.5752516 197.86814,34.5752516 L197.29883,34.5752516 L197.148728,21.0355949 L199.829032,20.5781134 C199.829032,20.5781134 199.698664,20.9572549 200.404321,21.4870962 C201.110578,22.0229175 201.319883,20.3490737 201.319883,20.3490737 L206.046593,19.7414905 L206.046593,32.1437228 L205.268575,32.9803457 L205.196814,21.1928728 L204.000185,22.3302972 L204.000185,23.9258012 L204.797937,24.2983645 L204.8697,33.0389512 C204.8697,33.0389512 203.856662,33.8953086 204.425375,34.5034898 C204.987508,35.111671 205.765526,34.4251499 205.765526,34.4251499 L205.903069,35.5625743 L205.196814,37.3147581 L204.63468,37.0863164 L204.63468,35.6606487 C204.63468,35.2031673 204.065968,35.432207 204.065968,35.432207 L203.222169,36.3405918 Z M205.772104,55.1888273 L204.281253,55.1888273 L204.281253,43.5520542 L205.772104,44.0095356 L205.772104,55.1888273 Z M208.472141,55.0387256 L206.32766,55.0387256 L206.32766,52.737564 L208.472141,52.815904 L208.472141,55.0387256 Z M211.080683,55.1888273 L209.007963,55.1888273 L209.007963,52.8356385 L211.080683,52.9074002 L211.080683,55.1888273 Z M217.552999,55.339527 L211.943618,55.339527 L211.943618,50.1678937 L212.957254,50.1678937 L212.957254,53.6525269 L215.885733,53.6525269 L215.885733,50.7043131 C215.885733,50.7043131 214.486976,50.6516877 214.800934,49.7104122 C215.114294,48.7691367 216.127929,48.1872682 215.729053,47.4026725 C215.336755,46.6180769 214.806914,47.3243325 214.173019,47.4810125 C213.539122,47.6376924 209.55096,47.3111762 209.55096,47.3111762 L206.536965,49.6518067 L206.536965,44.1925282 L207.314982,44.5782479 L207.314982,47.7100522 L208.204231,47.0103747 L208.204231,44.7157913 L209.145506,45.1403819 L209.152085,46.461397 L212.558378,46.461397 L212.558378,45.1338038 L213.66949,45.1338038 C213.66949,45.1338038 213.59115,44.10761 213.983448,43.7936522 C214.382323,43.4796944 215.173498,43.7153122 215.572373,43.9509302 C215.971249,44.18595 216.683485,44.6565878 216.997443,44.7349277 C217.317979,44.8138657 217.552999,45.0488856 217.552999,45.0488856 L217.552999,55.339527 Z M220.056888,54.9603856 L219.089299,54.9603856 L219.089299,43.7804958 L220.056888,43.6303941 L220.056888,54.9603856 Z M219.652031,42.4863915 C219.370366,42.4863915 219.233421,41.7998703 219.233421,41.7998703 C219.233421,41.7998703 209.995286,41.9565503 209.642457,41.7998703 C209.289629,41.6491706 209.498336,40.1260264 209.714219,40.0476865 C209.923524,39.9759247 209.995286,40.5835079 210.348712,40.6558677 C210.701542,40.7342077 210.629779,40.0476865 211.047792,40.0476865 C211.472981,40.0476865 211.191914,40.8059695 211.544743,40.8059695 C211.898169,40.8059695 211.969931,40.1260264 212.179236,40.1260264 C212.388542,40.1260264 212.250998,40.5835079 212.74137,40.8059695 C213.238321,41.0350092 213.59115,39.8186468 214.00976,39.8186468 C214.43435,39.8186468 214.081522,40.8059695 214.43435,40.8843094 C214.787778,40.9626494 214.931301,39.8969867 215.284728,39.8969867 C215.630979,39.8969867 215.493435,40.8059695 215.846862,40.8843094 C216.199691,40.9626494 216.337234,40.0476865 216.553118,40.0476865 C216.761825,40.0476865 216.690064,40.7342077 217.042892,40.7342077 C217.396319,40.7342077 217.677386,40.1260264 217.89327,40.1260264 C218.102575,40.1260264 218.030215,41.0415874 218.455404,40.8908876 C218.880592,40.7407858 218.455404,39.5441579 218.455404,39.5441579 L209.426573,39.6027634 L209.923524,38.7009568 L218.455404,38.628597 L219.233421,37.3147581 L219.017537,40.8125476 L220.148384,40.8125476 C220.148384,40.8125476 219.939078,42.4863915 219.652031,42.4863915 L219.652031,42.4863915 Z M220.220743,40.5117461 L219.298604,34.7259513 L220.109512,34.7259513 L221.024476,40.5117461 L220.220743,40.5117461 Z" id="Fill-7"></path>
            </g>
        </g>
    </g>
</svg>